<svg width="22" height="24" viewBox="0 0 22 24" fill="none" xmlns="http://www.w3.org/2000/svg">
<path d="M5.76078 6.24C5.50617 6.24 5.26199 6.13886 5.08196 5.95882C4.90192 5.77879 4.80078 5.53461 4.80078 5.28V0.96C4.80078 0.705392 4.90192 0.461213 5.08196 0.281178C5.26199 0.101143 5.50617 0 5.76078 0C6.01539 0 6.25957 0.101143 6.4396 0.281178C6.61964 0.461213 6.72078 0.705392 6.72078 0.96V5.28C6.72078 5.53461 6.61964 5.77879 6.4396 5.95882C6.25957 6.13886 6.01539 6.24 5.76078 6.24Z" fill="#A2A6AB"/>
<path d="M15.3604 6.24C15.1058 6.24 14.8616 6.13886 14.6816 5.95882C14.5015 5.77879 14.4004 5.53461 14.4004 5.28V0.96C14.4004 0.705392 14.5015 0.461213 14.6816 0.281178C14.8616 0.101143 15.1058 0 15.3604 0C15.615 0 15.8592 0.101143 16.0392 0.281178C16.2192 0.461213 16.3204 0.705392 16.3204 0.96V5.28C16.3204 5.53461 16.2192 5.77879 16.0392 5.95882C15.8592 6.13886 15.615 6.24 15.3604 6.24Z" fill="#A2A6AB"/>
<path d="M5.76066 19.2C5.57137 19.1992 5.38655 19.1425 5.22942 19.0369C5.07229 18.9314 4.94986 18.7818 4.87754 18.6069C4.80521 18.4319 4.78621 18.2395 4.82292 18.0538C4.85963 17.8682 4.95041 17.6975 5.08386 17.5632C5.26373 17.3844 5.50704 17.2841 5.76066 17.2841C6.01428 17.2841 6.25759 17.3844 6.43746 17.5632C6.5709 17.6975 6.66169 17.8682 6.6984 18.0538C6.73511 18.2395 6.71611 18.4319 6.64378 18.6069C6.57145 18.7818 6.44903 18.9314 6.2919 19.0369C6.13476 19.1425 5.94994 19.1992 5.76066 19.2Z" fill="#A2A6AB"/>
<path d="M15.3603 19.2C15.171 19.1992 14.9862 19.1425 14.829 19.0369C14.6719 18.9314 14.5495 18.7818 14.4771 18.6069C14.4048 18.4319 14.3858 18.2395 14.4225 18.0538C14.4592 17.8682 14.55 17.6975 14.6835 17.5632C14.8633 17.3844 15.1066 17.2841 15.3603 17.2841C15.6139 17.2841 15.8572 17.3844 16.0371 17.5632C16.1705 17.6975 16.2613 17.8682 16.298 18.0538C16.3347 18.2395 16.3157 18.4319 16.2434 18.6069C16.1711 18.7818 16.0486 18.9314 15.8915 19.0369C15.7344 19.1425 15.5495 19.1992 15.3603 19.2Z" fill="#A2A6AB"/>
<path d="M5.75959 14.88C5.5699 14.8802 5.38441 14.8241 5.22655 14.7189C5.06869 14.6138 4.94552 14.4642 4.8726 14.2891C4.79968 14.1139 4.78027 13.9211 4.81682 13.735C4.85338 13.5489 4.94426 13.3777 5.07799 13.2432C5.26157 13.0697 5.50459 12.973 5.75719 12.973C6.00979 12.973 6.25281 13.0697 6.43639 13.2432C6.56984 13.3774 6.66062 13.5481 6.69733 13.7338C6.73404 13.9195 6.71504 14.1119 6.64271 14.2868C6.57038 14.4618 6.44796 14.6114 6.29083 14.7169C6.1337 14.8225 5.94887 14.8792 5.75959 14.88Z" fill="#A2A6AB"/>
<path d="M10.5604 19.2C10.3707 19.2001 10.1852 19.1441 10.0273 19.0389C9.86947 18.9337 9.7463 18.7842 9.67338 18.609C9.60046 18.4339 9.58105 18.2411 9.6176 18.055C9.65416 17.8689 9.74504 17.6977 9.87877 17.5632C10.0629 17.3908 10.3057 17.2948 10.558 17.2948C10.8102 17.2948 11.0531 17.3908 11.2372 17.5632C11.4175 17.7424 11.5193 17.9858 11.5204 18.24C11.5204 18.4946 11.4192 18.7388 11.2392 18.9188C11.0592 19.0988 10.815 19.2 10.5604 19.2Z" fill="#A2A6AB"/>
<path d="M10.5604 14.88C10.3707 14.8802 10.1852 14.8241 10.0273 14.7189C9.86947 14.6138 9.7463 14.4642 9.67338 14.2891C9.60046 14.1139 9.58105 13.9211 9.6176 13.735C9.65416 13.5489 9.74504 13.3777 9.87877 13.2432C10.0624 13.0697 10.3054 12.973 10.558 12.973C10.8106 12.973 11.0536 13.0697 11.2372 13.2432C11.3706 13.3774 11.4614 13.5481 11.4981 13.7338C11.5348 13.9195 11.5158 14.1119 11.4435 14.2868C11.3712 14.4618 11.2487 14.6114 11.0916 14.7169C10.9345 14.8225 10.7497 14.8792 10.5604 14.88Z" fill="#A2A6AB"/>
<path d="M15.3604 14.88C15.1058 14.88 14.8616 14.7789 14.6816 14.5988C14.5015 14.4188 14.4004 14.1746 14.4004 13.92C14.4002 13.6665 14.5003 13.4232 14.6788 13.2432C14.8624 13.0697 15.1054 12.973 15.358 12.973C15.6106 12.973 15.8536 13.0697 16.0372 13.2432C16.1706 13.3774 16.2614 13.5481 16.2981 13.7338C16.3348 13.9195 16.3158 14.1119 16.2435 14.2868C16.1712 14.4618 16.0488 14.6114 15.8916 14.7169C15.7345 14.8225 15.5497 14.8792 15.3604 14.88Z" fill="#A2A6AB"/>
<path d="M18.24 24H2.88C2.11618 24 1.38364 23.6966 0.843532 23.1565C0.303427 22.6164 0 21.8838 0 21.12V5.76C0 4.99618 0.303427 4.26364 0.843532 3.72354C1.38364 3.18343 2.11618 2.88 2.88 2.88H18.24C19.0038 2.88 19.7364 3.18343 20.2765 3.72354C20.8166 4.26364 21.12 4.99618 21.12 5.76V21.12C21.12 21.8838 20.8166 22.6164 20.2765 23.1565C19.7364 23.6966 19.0038 24 18.24 24ZM2.88 4.8C2.62539 4.8 2.38121 4.90115 2.20118 5.08118C2.02114 5.26122 1.92 5.5054 1.92 5.76V21.12C1.92 21.3746 2.02114 21.6188 2.20118 21.7988C2.38121 21.9789 2.62539 22.08 2.88 22.08H18.24C18.4946 22.08 18.7388 21.9789 18.9188 21.7988C19.0989 21.6188 19.2 21.3746 19.2 21.12V5.76C19.2 5.5054 19.0989 5.26122 18.9188 5.08118C18.7388 4.90115 18.4946 4.8 18.24 4.8H2.88Z" fill="#A2A6AB"/>
<path d="M20.16 10.08H0.96C0.705392 10.08 0.461213 9.97889 0.281178 9.79886C0.101143 9.61882 0 9.37464 0 9.12003C0 8.86543 0.101143 8.62125 0.281178 8.44121C0.461213 8.26118 0.705392 8.16003 0.96 8.16003H20.16C20.4146 8.16003 20.6588 8.26118 20.8388 8.44121C21.0189 8.62125 21.12 8.86543 21.12 9.12003C21.12 9.37464 21.0189 9.61882 20.8388 9.79886C20.6588 9.97889 20.4146 10.08 20.16 10.08Z" fill="#A2A6AB"/>
</svg>
