<svg width="12" height="12" viewBox="0 0 12 12" fill="none" xmlns="http://www.w3.org/2000/svg">
<path fill-rule="evenodd" clip-rule="evenodd" d="M2.68694 4.77348C2.84683 4.6136 3.80615 4.37376 3.72621 3.3345C3.64626 3.01472 3.52635 2.13534 3.36646 1.6157C2.96674 0.336605 2.8868 -0.183029 1.68764 0.0568021C1.12804 0.176718 0.608401 0.696352 0.36857 1.17601C-1.82988 4.8934 6.36435 13.6472 10.2016 11.7286C10.6813 11.4888 11.2409 11.0091 11.4008 10.4895C11.7606 9.41022 11.2009 9.13042 9.80193 8.65075C9.24232 8.49087 8.52283 8.25103 8.20305 8.17109C7.16379 8.0112 6.92395 9.0105 6.76407 9.13041C5.32508 8.7307 3.00671 6.25244 2.68694 4.77348Z" fill="white"/>
</svg>
