<svg width="15" height="18" viewBox="0 0 15 18" fill="none" xmlns="http://www.w3.org/2000/svg">
<path d="M7.19772 17.3398C5.77415 17.3398 4.38254 16.9176 3.19888 16.1267C2.01522 15.3358 1.09268 14.2117 0.547897 12.8965C0.00311868 11.5813 -0.13942 10.1341 0.138305 8.73785C0.416031 7.34163 1.10155 6.05912 2.10817 5.0525C3.11479 4.04588 4.3973 3.36037 5.79352 3.08264C7.18974 2.80492 8.63696 2.94745 9.95217 3.49223C11.2674 4.03701 12.3915 4.95956 13.1824 6.14322C13.9733 7.32688 14.3954 8.71848 14.3954 10.1421C14.3954 12.051 13.6371 13.8818 12.2873 15.2316C10.9374 16.5814 9.10668 17.3398 7.19772 17.3398ZM7.19772 4.25302C6.03298 4.25302 4.89439 4.5984 3.92595 5.2455C2.9575 5.89259 2.20268 6.81234 1.75696 7.88842C1.31123 8.9645 1.19461 10.1486 1.42184 11.291C1.64907 12.4333 2.20994 13.4826 3.03354 14.3062C3.85714 15.1298 4.90646 15.6907 6.04883 15.9179C7.19119 16.1452 8.37528 16.0286 9.45136 15.5828C10.5274 15.1371 11.4472 14.3823 12.0943 13.4138C12.7414 12.4454 13.0868 11.3068 13.0868 10.1421C13.0868 8.58019 12.4663 7.08229 11.3619 5.97788C10.2575 4.87347 8.75959 4.25302 7.19772 4.25302Z" fill="#A2A6AB"/>
<path d="M7.19776 10.7967C7.02422 10.7967 6.85779 10.7277 6.73508 10.605C6.61237 10.4823 6.54343 10.3159 6.54343 10.1423V6.87065C6.54343 6.69711 6.61237 6.53067 6.73508 6.40796C6.85779 6.28525 7.02422 6.21631 7.19776 6.21631C7.37131 6.21631 7.53774 6.28525 7.66045 6.40796C7.78316 6.53067 7.8521 6.69711 7.8521 6.87065V10.1423C7.8521 10.3159 7.78316 10.4823 7.66045 10.605C7.53774 10.7277 7.37131 10.7967 7.19776 10.7967Z" fill="#A2A6AB"/>
<path d="M9.48785 1.30868H4.90748C4.73394 1.30868 4.56751 1.23974 4.44479 1.11702C4.32208 0.994313 4.25314 0.827879 4.25314 0.654338C4.25314 0.480797 4.32208 0.314364 4.44479 0.191651C4.56751 0.0689391 4.73394 0 4.90748 0H9.48785C9.66139 0 9.82782 0.0689391 9.95054 0.191651C10.0732 0.314364 10.1422 0.480797 10.1422 0.654338C10.1422 0.827879 10.0732 0.994313 9.95054 1.11702C9.82782 1.23974 9.66139 1.30868 9.48785 1.30868Z" fill="#A2A6AB"/>
<path d="M11.3299 5.67324C11.2026 5.67486 11.0776 5.63933 10.9702 5.57099C10.8629 5.50266 10.7777 5.40449 10.7253 5.28851C10.6729 5.17254 10.6554 5.04379 10.675 4.91803C10.6947 4.79228 10.7505 4.67498 10.8358 4.5805L12.9264 2.16272C12.9797 2.08895 13.0478 2.02712 13.1264 1.98116C13.205 1.9352 13.2922 1.90614 13.3826 1.89582C13.4731 1.8855 13.5646 1.89416 13.6515 1.92124C13.7384 1.94832 13.8187 1.99323 13.8872 2.05309C13.9558 2.11296 14.0111 2.18646 14.0496 2.26891C14.0882 2.35136 14.1091 2.44094 14.111 2.53193C14.113 2.62291 14.0959 2.71331 14.0609 2.79733C14.026 2.88135 13.9739 2.95716 13.908 3.0199L11.8173 5.43768C11.7576 5.50946 11.6832 5.56762 11.5991 5.60825C11.515 5.64888 11.4232 5.67104 11.3299 5.67324Z" fill="#A2A6AB"/>
</svg>
