<svg width="21" height="14" viewBox="0 0 21 14" fill="none" xmlns="http://www.w3.org/2000/svg">
<path d="M20.5516 6.59441C20.3705 6.32644 16.0576 0 10.5351 0C5.01255 0 0.69957 6.32644 0.518504 6.59441C0.438325 6.71381 0.395508 6.85437 0.395508 6.99819C0.395508 7.14201 0.438325 7.28257 0.518504 7.40197C0.69957 7.67356 5.01255 14 10.5351 14C16.0576 14 20.3705 7.67356 20.5516 7.40559C20.6326 7.28582 20.6758 7.14456 20.6758 7C20.6758 6.85544 20.6326 6.71418 20.5516 6.59441ZM10.5351 12.5515C6.52264 12.5515 3.02445 8.33988 2.01411 7C3.02445 5.66011 6.51178 1.44852 10.5351 1.44852C14.5583 1.44852 18.0457 5.66011 19.056 7C18.0493 8.33988 14.5583 12.5515 10.5351 12.5515Z" fill="#A2A6AB"/>
<path d="M10.5352 3.01685C9.74735 3.01685 8.9772 3.25047 8.32212 3.68818C7.66705 4.12588 7.15648 4.74801 6.85498 5.47589C6.55348 6.20377 6.4746 7.00471 6.6283 7.77742C6.782 8.55013 7.16139 9.25992 7.71848 9.81701C8.27558 10.3741 8.98536 10.7535 9.75807 10.9072C10.5308 11.0609 11.3317 10.982 12.0596 10.6805C12.7875 10.379 13.4096 9.86845 13.8473 9.21337C14.285 8.5583 14.5186 7.78814 14.5186 7.00029C14.5186 5.94382 14.099 4.93061 13.3519 4.18357C12.6049 3.43653 11.5917 3.01685 10.5352 3.01685ZM10.5352 9.53521C10.0338 9.53521 9.54374 9.38654 9.12688 9.108C8.71001 8.82946 8.38511 8.43356 8.19324 7.97036C8.00138 7.50717 7.95118 6.99748 8.04899 6.50575C8.1468 6.01403 8.38823 5.56235 8.74275 5.20783C9.09726 4.85332 9.54894 4.61189 10.0407 4.51408C10.5324 4.41627 11.0421 4.46647 11.5053 4.65833C11.9685 4.85019 12.3644 5.1751 12.6429 5.59196C12.9215 6.00883 13.0701 6.49893 13.0701 7.00029C13.0701 7.67259 12.8031 8.31736 12.3277 8.79275C11.8523 9.26814 11.2075 9.53521 10.5352 9.53521Z" fill="#A2A6AB"/>
</svg>
