<svg width="22" height="20" viewBox="0 0 22 20" fill="none" xmlns="http://www.w3.org/2000/svg">
<path d="M21.0623 19.2491L16.7514 6.7614C16.668 6.53891 16.4733 6.39985 16.223 6.39985H14.0815H12.8856C13.6921 5.73235 14.2205 4.67549 14.1927 3.53519C14.1371 1.64396 12.6074 0.0864832 10.7162 0.00304671C8.6581 -0.0803898 6.96156 1.56053 6.96156 3.61863C6.96156 4.73112 7.46218 5.73235 8.26873 6.39985H6.18282H4.90346C4.68096 6.39985 4.45847 6.53891 4.37503 6.7614L0.03633 19.2491C-0.102731 19.6106 0.175391 20 0.564761 20H20.5339C20.9233 19.9722 21.2014 19.6106 21.0623 19.2491ZM10.5493 2.08896C11.3837 2.08896 12.079 2.75645 12.079 3.61863C12.079 4.48081 11.3837 5.12049 10.5493 5.12049C9.71497 5.12049 9.01966 4.45299 9.01966 3.59082C9.01966 2.72864 9.71497 2.08896 10.5493 2.08896Z" fill="#EA591A"/>
</svg>
