<svg width="195" height="50" viewBox="0 0 195 50" fill="none" xmlns="http://www.w3.org/2000/svg">
<path d="M69.3893 35.2249C69.3893 37.5595 68.9865 39.3494 68.1808 40.5945C67.3843 41.8396 66.1942 42.4622 64.6103 42.4622C63.4018 42.4622 62.4313 41.9724 61.6989 40.9927V47.9004H57.8125V27.3285H61.4105L61.5479 28.688C62.2894 27.5986 63.3011 27.0538 64.5828 27.0538C66.1667 27.0538 67.3569 27.6306 68.1534 28.7842C68.959 29.9377 69.371 31.7047 69.3893 34.0851V35.2249ZM65.5167 34.2499C65.5167 32.8125 65.3564 31.7963 65.036 31.2012C64.7247 30.6061 64.1937 30.3085 63.443 30.3085C62.6465 30.3085 62.0651 30.6427 61.6989 31.311V38.2736C62.0468 38.9145 62.6373 39.2349 63.4705 39.2349C64.2395 39.2349 64.7705 38.9099 65.0635 38.2599C65.3656 37.6099 65.5167 36.5982 65.5167 35.2249V34.2499Z" fill="#333333"/>
<path d="M75.8163 42.1875H71.9162V27.3285H75.8163V42.1875ZM71.7377 23.4833C71.7377 22.879 71.9299 22.3846 72.3145 22.0001C72.699 21.6156 73.2117 21.4233 73.8525 21.4233C74.4934 21.4233 75.0061 21.6156 75.3906 22.0001C75.7751 22.3846 75.9674 22.879 75.9674 23.4833C75.9674 24.0784 75.7751 24.5728 75.3906 24.9664C75.0153 25.3601 74.5026 25.5569 73.8525 25.5569C73.2025 25.5569 72.6852 25.3601 72.3007 24.9664C71.9254 24.5728 71.7377 24.0784 71.7377 23.4833Z" fill="#333333"/>
<path d="M82.4768 27.3285L82.5867 28.7018C83.4564 27.6031 84.6054 27.0538 86.0336 27.0538C87.5168 27.0538 88.5651 27.7222 89.1785 29.0588C90.0299 27.7222 91.243 27.0538 92.8177 27.0538C95.4178 27.0538 96.7499 28.8528 96.814 32.4509V42.1875H92.9276V32.6981C92.9276 31.8375 92.8085 31.2241 92.5705 30.8578C92.3325 30.4916 91.9296 30.3085 91.362 30.3085C90.6387 30.3085 90.0986 30.7526 89.7415 31.6406L89.769 32.1075V42.1875H85.8826V32.7255C85.8826 31.8741 85.7681 31.2607 85.5392 30.8853C85.3104 30.5008 84.903 30.3085 84.317 30.3085C83.6487 30.3085 83.1177 30.6702 82.724 31.3934V42.1875H78.8376V27.3285H82.4768Z" fill="#333333"/>
<path d="M103.777 42.1875H99.8764V21.0938H103.777V42.1875Z" fill="#333333"/>
<path d="M106.331 34.2773C106.331 32.0251 106.862 30.2582 107.924 28.9764C108.986 27.6947 110.455 27.0538 112.332 27.0538C114.227 27.0538 115.706 27.6947 116.768 28.9764C117.83 30.2582 118.361 32.0343 118.361 34.3048V35.2524C118.361 37.5137 117.834 39.2807 116.782 40.5533C115.729 41.8259 114.255 42.4622 112.36 42.4622C110.455 42.4622 108.972 41.8259 107.91 40.5533C106.857 39.2715 106.331 37.4954 106.331 35.2249V34.2773ZM110.231 35.2524C110.231 37.9074 110.941 39.2349 112.36 39.2349C113.669 39.2349 114.374 38.1271 114.474 35.9116L114.488 34.2773C114.488 32.9224 114.301 31.9199 113.925 31.2698C113.55 30.6107 113.019 30.2811 112.332 30.2811C111.673 30.2811 111.156 30.6107 110.78 31.2698C110.414 31.9199 110.231 32.9224 110.231 34.2773V35.2524Z" fill="#333333"/>
<path d="M124.445 27.3285L124.554 28.7018C125.424 27.6031 126.573 27.0538 128.001 27.0538C129.485 27.0538 130.533 27.7222 131.146 29.0588C131.998 27.7222 133.211 27.0538 134.785 27.0538C137.386 27.0538 138.718 28.8528 138.782 32.4509V42.1875H134.895V32.6981C134.895 31.8375 134.776 31.2241 134.538 30.8578C134.3 30.4916 133.897 30.3085 133.33 30.3085C132.607 30.3085 132.066 30.7526 131.709 31.6406L131.737 32.1075V42.1875H127.85V32.7255C127.85 31.8741 127.736 31.2607 127.507 30.8853C127.278 30.5008 126.871 30.3085 126.285 30.3085C125.616 30.3085 125.085 30.6702 124.692 31.3934V42.1875H120.805V27.3285H124.445Z" fill="#333333"/>
<path d="M141.982 40.21C141.982 39.5874 142.188 39.0747 142.599 38.6719C143.021 38.269 143.565 38.0676 144.234 38.0676C144.884 38.0676 145.424 38.269 145.854 38.6719C146.284 39.0656 146.5 39.5782 146.5 40.21C146.5 40.8508 146.28 41.3681 145.84 41.7618C145.41 42.1463 144.875 42.3386 144.234 42.3386C143.584 42.3386 143.044 42.1417 142.613 41.748C142.192 41.3544 141.982 40.8417 141.982 40.21Z" fill="#333333"/>
<path d="M155.22 39.2349C156.346 39.2349 156.918 38.5025 156.937 37.0377H160.59C160.571 38.6581 160.072 39.9673 159.093 40.9653C158.113 41.9632 156.85 42.4622 155.302 42.4622C153.389 42.4622 151.929 41.8671 150.922 40.6769C149.915 39.4867 149.402 37.7335 149.384 35.4172V34.2361C149.384 31.9016 149.878 30.1208 150.867 28.894C151.865 27.6672 153.334 27.0538 155.275 27.0538C156.914 27.0538 158.205 27.562 159.148 28.5782C160.091 29.5853 160.571 31.0181 160.59 32.8766H156.937C156.927 32.0435 156.79 31.4026 156.525 30.954C156.259 30.5054 155.82 30.2811 155.206 30.2811C154.529 30.2811 154.044 30.5237 153.751 31.0089C153.458 31.485 153.302 32.4142 153.284 33.7967V35.3073C153.284 36.5158 153.343 37.3627 153.462 37.8479C153.581 38.324 153.778 38.6765 154.053 38.9053C154.327 39.1251 154.716 39.2349 155.22 39.2349Z" fill="#333333"/>
<path d="M162.334 34.2773C162.334 32.0251 162.865 30.2582 163.927 28.9764C164.989 27.6947 166.458 27.0538 168.335 27.0538C170.23 27.0538 171.709 27.6947 172.771 28.9764C173.833 30.2582 174.364 32.0343 174.364 34.3048V35.2524C174.364 37.5137 173.837 39.2807 172.784 40.5533C171.732 41.8259 170.258 42.4622 168.362 42.4622C166.458 42.4622 164.975 41.8259 163.913 40.5533C162.86 39.2715 162.334 37.4954 162.334 35.2249V34.2773ZM166.234 35.2524C166.234 37.9074 166.943 39.2349 168.362 39.2349C169.672 39.2349 170.377 38.1271 170.477 35.9116L170.491 34.2773C170.491 32.9224 170.303 31.9199 169.928 31.2698C169.553 30.6107 169.022 30.2811 168.335 30.2811C167.676 30.2811 167.159 30.6107 166.783 31.2698C166.417 31.9199 166.234 32.9224 166.234 34.2773V35.2524Z" fill="#333333"/>
<path d="M180.447 27.3285L180.557 28.7018C181.427 27.6031 182.576 27.0538 184.004 27.0538C185.487 27.0538 186.536 27.7222 187.149 29.0588C188 27.7222 189.214 27.0538 190.788 27.0538C193.388 27.0538 194.72 28.8528 194.785 32.4509V42.1875H190.898V32.6981C190.898 31.8375 190.779 31.2241 190.541 30.8578C190.303 30.4916 189.9 30.3085 189.333 30.3085C188.609 30.3085 188.069 30.7526 187.712 31.6406L187.74 32.1075V42.1875H183.853V32.7255C183.853 31.8741 183.739 31.2607 183.51 30.8853C183.281 30.5008 182.874 30.3085 182.288 30.3085C181.619 30.3085 181.088 30.6702 180.695 31.3934V42.1875H176.808V27.3285H180.447Z" fill="#333333"/>
<path fill-rule="evenodd" clip-rule="evenodd" d="M5 0C2.23858 0 0 2.23858 0 5V45C0 47.7614 2.23858 50 5 50H45C47.7614 50 50 47.7614 50 45V5C50 2.23858 47.7614 0 45 0H5ZM26.8463 40.6616C28.0273 39.4897 28.6682 37.764 28.7689 35.4843H24.7314C24.6765 36.8393 24.4476 37.7777 24.0448 38.2996C23.642 38.8123 22.9095 39.0686 21.8475 39.0686C20.7672 39.0686 20.0027 38.6978 19.5541 37.9562C19.1147 37.2147 18.895 35.8505 18.895 33.8638V30.0873C18.9224 28.3569 19.1605 27.1164 19.6091 26.3657C20.0577 25.6058 20.8221 25.2258 21.9025 25.2258C22.9645 25.2258 23.6923 25.4959 24.086 26.0361C24.4888 26.5671 24.7086 27.5375 24.7452 28.9474H28.7964C28.6407 26.6678 27.9953 24.9191 26.86 23.7015C25.7339 22.4838 24.0814 21.875 21.9025 21.875C19.6869 21.875 17.9565 22.6212 16.7114 24.1135C15.4663 25.5966 14.8438 27.7115 14.8438 30.4581V33.8226C14.8438 36.5784 15.4434 38.7024 16.6428 40.1947C17.8513 41.6779 19.5862 42.4194 21.8475 42.4194C23.999 42.4194 25.6653 41.8335 26.8463 40.6616ZM35.1273 42.4194C36.4822 42.4194 37.5626 41.8747 38.3682 40.7852L38.4781 42.1448H42.131V27.2858H38.2172V38.0249C37.8235 38.7939 37.1826 39.1785 36.2946 39.1785C35.3516 39.1785 34.8709 38.4552 34.8526 37.0087V27.2858H30.9662V36.9125C30.9662 38.707 31.3187 40.0757 32.0236 41.0187C32.7286 41.9525 33.7631 42.4194 35.1273 42.4194Z" fill="#EA591A"/>
</svg>
